# xmcd CD database file
#
# Track frame offsets:
#	187
#	10277
#	20965
#	33765
#	46260
#	57022
#	72190
#	82967
#	93220
#	104222
#	113577
#	128047
#	141560
#	153505
#	164442
#	177892
#	191327
#	202320
#	214580
#	225875
#
# Disc length: 3173 seconds
#
# Revision: 0
# Processed by: cddbd v1.5.2PL0 Copyright (c) Steve Scherf et al.
# Submitted via: CDex 1.70beta3
#
DISCID=0e0c6314
DTITLE=Various Artist - Sound Patio Country and Western
DYEAR=1988
DGENRE=Country
TTITLE0=George Jones/Jambalaya
TTITLE1=Georger Jones/Hey Good Lookin'
TTITLE2=Johnny Rodrigues/I Really Don't Want To Know
TTITLE3=Faron Young/I Can't Stop Loving You
TTITLE4=Johnny Jones/Release Me
TTITLE5=George Jones/Cold Cold Heart
TTITLE6=Dave Dudley/Oh Lonesome Me
TTITLE7=George Jones/I Walk The Line
TTITLE8=Pete Drake/Steel Guitar Rag
TTITLE9=The Shady Oak Boys/You Are My Sunshine
TTITLE10=Roger Miller/Green Green Grass Of Home
TTITLE11=Faron Young/Gentle On My Mind
TTITLE12=Roger Miller/By The Time I Get To Phoenix
TTITLE13=Jerry Lee Lewis and Linda Gail Lewis/Jackson
TTITLE14=Roger Miller/The Elusive Dreams
TTITLE15=Faron Young/San Antonio Rose
TTITLE16=The Stanley Brothers/Memories Of Mother
TTITLE17=Lester Flatt and Earl Scruggs/Foggy Mountain Breakdown
TTITLE18=The Stanley Brothers/Orange Blossom Special
TTITLE19=Lester Flatt and Earl Scruggs/We'll Meet Again Sweetheart
EXTD=YEAR: 1988
EXTT0=
EXTT1=
EXTT2=
EXTT3=
EXTT4=
EXTT5=
EXTT6=
EXTT7=
EXTT8=
EXTT9=
EXTT10=
EXTT11=
EXTT12=
EXTT13=
EXTT14=
EXTT15=
EXTT16=
EXTT17=
EXTT18=
EXTT19=
PLAYORDER=
